<?xml version="1.0" encoding="UTF-8"?><svg id="Layer_2" xmlns="http://www.w3.org/2000/svg" viewBox="0 0 2249 1379"><g id="Layer_1-2"><polygon points="985.54 657.62 978.56 676.85 991.74 676.85 985.54 657.62"/><path d="m1193.98,670.22c0-11.52-9.94-17.28-24.05-17.28s-24.05,5.62-24.05,17.71,9.94,18,23.98,18,24.12-5.76,24.12-18.43Z"/><path d="m935.68,654.96h-28.08v14.76h28.08c7.06,0,8.64-4.03,8.64-7.71,0-3.02-1.58-7.06-8.64-7.06Z"/><path d="m1062.08,662.01c0-3.02-1.94-7.06-8.28-7.06h-18.72v14.76h18.72c6.34,0,8.28-4.03,8.28-7.71Z"/><path d="m0,0v1379h2249V0H0Zm1324.81,640.84c7.27,0,15.26,1.87,19.8,4.46l-2.74,12.24c-4.83-2.88-12.03-4.39-17.57-4.39-4.46,0-7.49,1.73-7.49,4.75,0,9.36,29.52,4.1,29.52,23.47,0,10.3-7.34,19.37-22.68,19.37-6.55,0-13.97-.86-19.95-3.67l.58-13.18c5.98,2.88,12.53,4.54,19.8,4.54,6.34,0,7.92-2.23,7.92-4.9,0-8.64-29.45-3.6-29.45-23.98,0-12.17,9.72-18.72,22.25-18.72Zm-107.43,1.15h20.23l38.09,36.36h3.6v-36.36h14.4v57.61h-17.43l-40.9-40.4h-3.6v40.4h-14.4v-57.61Zm-112.61-1.15c7.27,0,15.27,1.87,19.8,4.46l-2.74,12.24c-4.82-2.88-12.03-4.39-17.57-4.39-4.46,0-7.49,1.73-7.49,4.75,0,9.36,29.52,4.1,29.52,23.47,0,10.3-7.34,19.37-22.68,19.37-6.55,0-13.97-.86-19.95-3.67l.58-13.18c5.98,2.88,12.53,4.54,19.8,4.54,6.34,0,7.92-2.23,7.92-4.9,0-8.64-29.45-3.6-29.45-23.98,0-12.17,9.72-18.72,22.25-18.72Zm-84.1,1.15h35.93c13.61,0,20.38,9.14,20.38,19.66,0,8.35-4.39,14.54-10.3,17.79l10.15,20.16h-16.2l-7.99-17.64h-17.57v17.64h-14.4v-57.61Zm-27.65,0l21.67,57.61h-15.62l-3.6-11.02h-21.1l-3.96,11.02h-15.34l23.11-57.61h14.83Zm-45.79,87.37h-44.42v15.05h37.51v9.29h-37.51v23.9h-10.51v-57.6h54.94v9.36Zm-9.47-47.4h-30.17v17.64h-14.4v-57.61h44.57c14.33,0,21.46,9.14,21.46,19.66,0,12.6-10.3,20.3-21.46,20.3Zm70.89,47.47h-44.71v14.54h37.66v9.36h-37.66v14.83h44.71v9.43h-55.22v-57.6h55.22v9.43Zm60.88,37.29c-.74,1.87-1.85,3.54-3.31,5-1.46,1.46-3.36,2.73-5.69,3.78-2.33,1.06-5.1,1.86-8.32,2.41-3.22.55-6.89.83-11.02.83-2.45,0-4.8-.07-7.06-.22-2.26-.14-4.45-.36-6.59-.65-2.14-.29-4.3-.66-6.48-1.12-2.18-.46-4.38-1-6.59-1.62l.43-9.79c1.92.58,3.72,1.08,5.4,1.51,1.68.43,3.36.82,5.04,1.15,1.68.34,3.38.62,5.11.86,1.73.24,3.54.41,5.44.5,1.9.1,3.92.14,6.08.14,2.74,0,5.12-.11,7.16-.32,2.04-.22,3.77-.55,5.18-1.01,1.42-.46,2.53-1,3.35-1.62.82-.62,1.42-1.31,1.8-2.05.38-.74.58-1.62.58-2.63,0-1.15-.31-2.14-.94-2.95-.62-.82-1.55-1.51-2.77-2.09s-2.7-1.09-4.43-1.55c-1.73-.46-3.73-.85-6.01-1.19-2.28-.33-4.74-.67-7.38-1.01-3.94-.48-7.43-1.1-10.48-1.87-3.05-.77-5.64-1.78-7.78-3.02-2.14-1.25-3.74-2.82-4.82-4.71s-1.62-4.21-1.62-6.95c0-3.02.64-5.63,1.91-7.81,1.27-2.18,3.16-4.01,5.65-5.47,2.5-1.46,5.51-2.56,9.04-3.28,3.53-.72,7.57-1.08,12.13-1.08,2.16,0,4.21.06,6.16.18,1.94.12,3.83.3,5.65.54,1.82.24,3.58.53,5.26.86,1.68.34,3.29.73,4.82,1.19,1.54.46,3.1.9,4.68,1.33l-1.94,9.14c-1.68-.53-3.34-1.02-4.97-1.48-1.63-.46-3.24-.85-4.82-1.19-1.58-.33-3.2-.61-4.86-.83-1.66-.22-3.37-.37-5.15-.47-1.78-.1-3.65-.14-5.62-.14-2.35,0-4.48.11-6.37.32-1.9.22-3.55.52-4.97.9-1.42.38-2.57.86-3.46,1.44-.89.58-1.55,1.29-1.98,2.12s-.65,1.72-.65,2.63c0,1.39.41,2.56,1.22,3.49.82.94,2,1.71,3.56,2.3,1.56.6,3.46,1.1,5.69,1.51,2.23.41,4.76.8,7.6,1.19,3.36.43,6.49.91,9.4,1.44,2.9.53,5.5,1.14,7.78,1.84,2.28.7,4.25,1.63,5.9,2.81,1.66,1.18,2.93,2.63,3.82,4.36.89,1.73,1.33,3.86,1.33,6.41,0,2.06-.37,4.03-1.12,5.9Zm66.78-37.29h-26.71v48.17h-10.58v-48.17h-26.42v-9.43h63.72v9.43Zm-5.26-58.85c0-18.87,15.84-29.74,39.03-29.74s38.74,10.22,38.74,29.67-17.21,30.24-38.81,30.24-38.96-10.15-38.96-30.17Zm21.75,107.02h-10.51v-57.6h10.51v57.6Zm34.85,0l-28.51-57.6h11.74l22.46,46.73h2.45l23.04-46.73h11.16l-29.16,57.6h-13.18Zm96.48,0l-6.19-15.12h-36.47l-6.44,15.12h-10.87l25.42-57.6h21.38l24.26,57.6h-11.09Zm68.4,0h-50.76v-57.6h10.51v47.95h40.25v9.65Z"/><polygon points="1255.54 729.43 1245.18 753.77 1274.37 753.77 1264.4 729.43 1255.54 729.43"/></g></svg>